<svg xmlns="http://www.w3.org/2000/svg" width="1280" height="640" viewBox="0 0 1280 640" role="img" aria-labelledby="title desc">
  <title id="title">CrisisSignal AI</title>
  <desc id="desc">Trustworthy crisis intelligence from noisy social streams</desc>
  <defs>
    <linearGradient id="bg" x1="0" x2="1" y1="0" y2="1">
      <stop offset="0" stop-color="#081223"/>
      <stop offset="1" stop-color="#19374f"/>
    </linearGradient>
    <pattern id="grid" width="80" height="80" patternUnits="userSpaceOnUse">
      <path d="M80 0H0V80" fill="none" stroke="#23435b" stroke-width="1"/>
    </pattern>
  </defs>
  <rect width="1280" height="640" fill="url(#bg)"/>
  <rect width="1280" height="640" fill="url(#grid)" opacity=".65"/>
  <text x="90" y="155" fill="#f5faff" font-family="Arial, sans-serif" font-size="76" font-weight="700">CrisisSignal AI</text>
  <text x="94" y="210" fill="#a3d3e8" font-family="Arial, sans-serif" font-size="30">Trustworthy crisis intelligence from noisy social streams</text>
  <rect x="90" y="260" width="660" height="66" rx="18" fill="#0f2d44" stroke="#4adebe" stroke-width="2"/>
  <text x="116" y="302" fill="#eef8fb" font-family="Arial, sans-serif" font-size="24">NLP • Uncertainty • MLOps • Human Review</text>
  <path d="M90 445 C155 370 215 515 285 425 S420 345 485 450 S620 510 690 400 S820 350 885 445 S1025 500 1190 405" fill="none" stroke="#4adebe" stroke-width="6"/>
  <g fill="#ffbe50" stroke="#fff" stroke-width="2">
    <circle cx="220" cy="437" r="10"/><circle cx="510" cy="444" r="10"/><circle cx="790" cy="397" r="10"/><circle cx="1060" cy="450" r="10"/>
  </g>
  <text x="90" y="575" fill="#bed0dc" font-family="Arial, sans-serif" font-size="23">Faramarz Kowsari | Research • Engineering • Teaching</text>
</svg>
